<svg width="129" height="175" viewBox="0 0 129 175" fill="none" xmlns="http://www.w3.org/2000/svg">
<path d="M5.02408 39.9114C7.28016 39.9114 9.10907 33.122 9.10907 24.7466C9.10907 16.3712 7.28016 9.58154 5.02408 9.58154C2.768 9.58154 0.939087 16.3712 0.939087 24.7466C0.939087 33.122 2.768 39.9114 5.02408 39.9114Z" fill="#0F2F50"/>
<path d="M68.1641 174.779C101.673 174.779 128.838 173.375 128.838 171.643C128.838 169.911 101.673 168.507 68.1641 168.507C34.6548 168.507 7.49011 169.911 7.49011 171.643C7.49011 173.375 34.6548 174.779 68.1641 174.779Z" fill="#0F2F50"/>
<path d="M31.7831 109.065C31.7831 109.065 105.806 102.866 105.795 105.259C105.786 107.291 106.5 110.975 103.436 110.975C100.372 110.975 31.7831 109.065 31.7831 109.065Z" fill="#0F2F50"/>
<path d="M42.8361 50.3525L60.7481 24.6235C62.8201 26.1785 68.2621 30.3386 70.7881 32.9956C78.3381 40.9376 103.737 60.3494 104.814 61.1714L110.415 65.8096C110.663 66.0146 110.813 66.3055 110.837 66.6265C110.861 66.9475 110.755 67.2566 110.541 67.4956L91.5581 88.6575L42.8361 50.3525Z" fill="white"/>
<path d="M60.9761 26.0476C63.3951 27.8856 67.8691 31.3766 70.0631 33.6846C77.6041 41.6186 102.709 60.8214 104.176 61.9424L109.778 66.5796C109.792 66.5916 109.835 66.6264 109.841 66.7004C109.846 66.7734 109.809 66.8154 109.797 66.8284L91.4401 87.2925L44.1971 50.1494L60.9761 26.0476ZM60.5181 23.2046L41.4761 50.5544L91.6761 90.0225L111.284 68.1636C112.108 67.2456 112.003 65.8256 111.052 65.0386L105.42 60.3765C105.42 60.3765 79.0931 40.2834 71.5111 32.3064C68.2751 28.8994 60.5181 23.2046 60.5181 23.2046Z" fill="#FFC563"/>
<path d="M103.436 80.1865C103.436 80.1865 93.1711 67.9104 89.6651 63.8674C82.6671 55.7994 62.5961 30.8206 62.5961 30.8206L36.6301 48.1604L78.8671 99.3694L103.436 80.1865Z" fill="#FFC563"/>
<path d="M50.963 114.889C57.8296 114.889 63.3961 109.323 63.3961 102.457C63.3961 95.59 57.8296 90.0234 50.963 90.0234C44.0965 90.0234 38.53 95.59 38.53 102.457C38.53 109.323 44.0965 114.889 50.963 114.889Z" fill="#0F2F50"/>
<path d="M50.963 112.666C56.6013 112.666 61.172 108.095 61.172 102.457C61.172 96.8183 56.6013 92.2476 50.963 92.2476C45.3248 92.2476 40.754 96.8183 40.754 102.457C40.754 108.095 45.3248 112.666 50.963 112.666Z" fill="white"/>
<path d="M53.8761 106.011C53.3541 106.528 52.6611 106.852 51.7941 106.982V108.52H50.3691V107.01C49.7441 106.963 49.1701 106.843 48.6441 106.647C48.1171 106.451 47.6591 106.19 47.2671 105.865L47.8681 104.565C48.3431 104.92 48.8251 105.18 49.3141 105.348C49.8031 105.515 50.3321 105.6 50.9001 105.6C51.5341 105.6 52.0201 105.479 52.3601 105.237C52.7001 104.995 52.8701 104.645 52.8701 104.188C52.8701 103.918 52.7771 103.699 52.5911 103.531C52.4051 103.364 52.1731 103.232 51.8991 103.134C51.6251 103.036 51.2361 102.923 50.7321 102.792C50.0241 102.615 49.4511 102.435 49.0141 102.253C48.5761 102.071 48.1991 101.793 47.8821 101.416C47.5651 101.038 47.4071 100.532 47.4071 99.8994C47.4071 99.1544 47.6801 98.5156 48.2251 97.9856C48.7691 97.4546 49.4751 97.1244 50.3411 96.9934V95.4565H51.7661V96.9795C52.2971 97.0445 52.8021 97.1756 53.2821 97.3706C53.7621 97.5656 54.1601 97.8084 54.4771 98.0964L53.8761 99.3965C53.0101 98.7165 52.0831 98.3765 51.0961 98.3765C50.5181 98.3765 50.0601 98.5024 49.7201 98.7534C49.3801 99.0044 49.2101 99.3535 49.2101 99.8015C49.2101 100.11 49.3081 100.359 49.5031 100.55C49.6991 100.741 49.9481 100.892 50.2501 101.003C50.5521 101.115 50.9601 101.233 51.4731 101.353C52.1531 101.52 52.7051 101.691 53.1291 101.863C53.5531 102.035 53.9141 102.303 54.2121 102.667C54.5101 103.03 54.6591 103.513 54.6591 104.119C54.6591 104.864 54.3981 105.494 53.8761 106.011Z" fill="#0F2F50"/>
<path d="M68.6801 103.655C67.3821 103.655 66.7671 102.693 65.8721 101.125C65.6171 100.679 65.3541 100.216 65.0591 99.7935L36.1221 58.3174C34.3151 55.7274 33.8061 54.4634 33.6641 53.9304C35.7461 52.9444 40.6351 49.4535 48.8071 43.4375C50.4831 42.2045 51.8601 41.1894 52.6391 40.6404C55.1071 38.8974 58.8491 36.8396 60.4971 35.9556C62.8381 39.8386 72.8631 56.5414 74.6271 60.8044C76.4351 65.1724 88.9121 83.8914 92.8341 89.7344C90.6591 90.8434 85.7461 93.3854 84.0871 94.5364C82.0961 95.9184 78.3901 98.4896 72.2521 102.288C70.7871 103.195 69.5841 103.655 68.6801 103.655Z" fill="white"/>
<path d="M60.1332 37.2905C63.1312 42.2735 72.0681 57.2355 73.7031 61.1865C75.4541 65.4165 86.8851 82.6484 91.3771 89.3574C88.6981 90.7364 84.9771 92.7026 83.5171 93.7156C81.5341 95.0916 77.8431 97.6525 71.7261 101.438C70.1001 102.443 69.1721 102.655 68.6791 102.655C68.0042 102.655 67.6212 102.173 66.7402 100.628C66.4742 100.162 66.1992 99.6815 65.8782 99.2205L36.9401 57.7456C35.7941 56.1026 35.2102 55.0446 34.9122 54.4036C37.1322 53.1536 41.2451 50.2456 49.4071 44.2356C51.0401 43.0336 52.4492 41.9956 53.2142 41.4556C55.2852 39.9956 58.2872 38.2985 60.1332 37.2905ZM60.8641 34.6294C60.8641 34.6294 55.3811 37.4795 52.0621 39.8225C48.7431 42.1665 34.5791 52.9204 32.7251 53.2234C32.7251 53.2234 31.7841 53.8464 35.3021 58.8894C38.8201 63.9324 62.5692 97.9705 64.2402 100.365C65.4282 102.067 66.1661 104.655 68.6811 104.655C69.7041 104.655 71.0201 104.226 72.7801 103.137C78.8681 99.3705 82.5742 96.8044 84.6592 95.3574C86.3052 94.2154 91.3601 91.6085 93.4141 90.5615C93.8831 90.3225 94.0391 89.7324 93.7461 89.2964C90.8431 84.9724 77.3731 64.8204 75.5531 60.4214C73.5091 55.4864 60.8641 34.6294 60.8641 34.6294Z" fill="#FFC563"/>
<path d="M114.691 4.82153L116.758 6.14258C116.758 6.14258 122.668 12.5165 116.354 22.0825C110.163 31.4615 103.737 29.0574 103.737 29.0574L100.334 27.6445L114.691 4.82153Z" fill="#0F2F50"/>
<path d="M114.788 4.68848C110.814 2.18811 104.378 5.27031 100.413 11.5728C96.4483 17.8753 96.4565 25.0114 100.431 27.5117C104.406 30.0121 110.842 26.9299 114.807 20.6274C118.771 14.3249 118.763 7.18885 114.788 4.68848Z" fill="#0F2F50"/>
<path d="M113.071 7.41896C110.047 5.51707 105.151 7.86195 102.136 12.6563C99.1196 17.4506 99.1257 22.8788 102.149 24.7807C105.172 26.6826 110.068 24.3379 113.084 19.5436C116.1 14.7493 116.094 9.32085 113.071 7.41896Z" fill="white"/>
<path d="M107.146 20.5564C106.546 20.8414 105.957 20.8855 105.381 20.6895L104.493 22.1006L103.668 21.5815L104.539 20.1965C104.205 19.9255 103.942 19.6066 103.75 19.2356C103.558 18.8646 103.443 18.4576 103.405 18.0166L104.504 17.0425C104.574 17.5405 104.703 17.9546 104.889 18.2876C105.075 18.6196 105.333 18.8885 105.662 19.0955C106.029 19.3265 106.38 19.3925 106.717 19.2935C107.054 19.1955 107.354 18.9366 107.617 18.5176C107.773 18.2696 107.845 18.0345 107.835 17.8125C107.824 17.5915 107.767 17.3856 107.664 17.1956C107.562 17.0056 107.402 16.7595 107.186 16.4565C106.879 16.0365 106.65 15.6634 106.502 15.3364C106.353 15.0104 106.296 14.6165 106.331 14.1555C106.366 13.6935 106.565 13.1726 106.931 12.5906C107.361 11.9066 107.888 11.4206 108.509 11.1316C109.13 10.8426 109.73 10.7965 110.307 10.9915L111.194 9.58154L112.019 10.1006L111.14 11.4985C111.41 11.7515 111.627 12.0554 111.792 12.4094C111.957 12.7634 112.047 13.1315 112.064 13.5115L110.965 14.4856C110.857 13.5466 110.516 12.8964 109.945 12.5364C109.611 12.3264 109.273 12.2746 108.931 12.3826C108.589 12.4886 108.289 12.7474 108.031 13.1584C107.853 13.4404 107.766 13.7054 107.769 13.9514C107.772 14.1984 107.829 14.4284 107.939 14.6404C108.049 14.8534 108.218 15.1095 108.445 15.4065C108.742 15.8075 108.963 16.1655 109.109 16.4775C109.255 16.7895 109.309 17.1664 109.272 17.6094C109.235 18.0514 109.042 18.5504 108.692 19.1064C108.261 19.7884 107.746 20.2714 107.146 20.5564Z" fill="#0F2F50"/>
<path d="M62.6111 77.3335C61.8221 77.2225 61.088 76.8365 60.406 76.1755L59.08 77.1845L58.144 75.9555L59.446 74.9646C59.076 74.3946 58.803 73.8195 58.626 73.2375C58.449 72.6545 58.373 72.0873 58.397 71.5363L59.9131 71.2014C59.9181 71.8434 60.011 72.4304 60.187 72.9624C60.363 73.4944 60.6391 74.0056 61.0121 74.4956C61.4281 75.0426 61.8521 75.3826 62.2841 75.5166C62.7161 75.6516 63.129 75.5685 63.523 75.2685C63.756 75.0915 63.884 74.8674 63.907 74.5964C63.929 74.3254 63.8921 74.0385 63.7961 73.7375C63.7001 73.4365 63.543 73.0266 63.325 72.5066C63.013 71.7786 62.791 71.1674 62.661 70.6704C62.53 70.1724 62.5241 69.6645 62.6411 69.1435C62.7591 68.6225 63.0901 68.1535 63.6371 67.7375C64.2801 67.2475 65.01 67.0645 65.826 67.1865C66.641 67.3075 67.3901 67.6995 68.0721 68.3615L69.398 67.3525L70.334 68.5815L69.0201 69.5815C69.3131 70.0825 69.532 70.6044 69.678 71.1464C69.824 71.6884 69.876 72.1915 69.836 72.6545L68.32 72.9895C68.338 71.7965 68.023 70.7724 67.375 69.9204C66.996 69.4224 66.5861 69.1084 66.1461 68.9814C65.7061 68.8524 65.293 68.9355 64.907 69.2295C64.641 69.4315 64.49 69.6793 64.455 69.9733C64.419 70.2673 64.452 70.5825 64.554 70.9165C64.656 71.2515 64.8231 71.6794 65.0551 72.2014C65.3571 72.8984 65.5721 73.4866 65.7021 73.9646C65.8321 74.4436 65.838 74.9305 65.72 75.4265C65.602 75.9225 65.282 76.3686 64.76 76.7666C64.115 77.2556 63.3991 77.4445 62.6111 77.3335Z" fill="#0F2F50"/>
<path d="M31.7831 170.689C31.7831 170.689 38.6631 169.689 40.9561 169.689C57.7231 169.689 108.024 170.689 108.024 170.689C108.024 170.689 107.842 162.197 108.024 157.719C108.71 140.861 108.024 109.064 108.024 109.064C108.024 109.064 79.936 108.064 70.573 108.064C60.875 108.064 31.7831 109.064 31.7831 109.064C31.7831 109.064 31.254 117.932 31.254 121.385C31.253 133.338 31.7831 170.689 31.7831 170.689Z" fill="#FFC563"/>
<path d="M100.446 115.382H39.3611V164.373H100.446V115.382Z" fill="#FFEFE1"/>
<path d="M99.4461 116.382V163.373H40.3601V116.382H99.4461ZM101.446 114.382H38.3601V165.373H101.445V114.382H101.446Z" fill="#FFC563"/>
<path d="M50.1801 129.157C52.0251 129.498 59.3881 129.879 60.856 130.84C62.865 132.155 63.0101 134.99 62.9651 137.391C62.8741 142.297 62.89 147.205 62.945 152.112C47.267 153.102 38.7181 151.716 26.6331 152.505C26.2721 150.653 25.616 143.245 25.205 141.417C24.629 138.858 24.8141 136.198 25.0031 133.582C25.1611 131.385 25.6661 130.277 27.8141 129.928C30.3261 129.521 45.2991 128.254 50.1801 129.157Z" fill="#FF6A48"/>
<path d="M49.9151 145.85C52.903 145.85 55.3251 143.427 55.3251 140.439C55.3251 137.452 52.903 135.03 49.9151 135.03C46.9273 135.03 44.5051 137.452 44.5051 140.439C44.5051 143.427 46.9273 145.85 49.9151 145.85Z" fill="#FFFAF3"/>
<path d="M13.141 168.025C16.361 167.429 20.046 167.035 23.152 167.767C22.097 167.176 20.507 166.874 18.928 166.803C17.349 166.732 15.7641 166.869 14.2151 167.035C12.0601 167.266 3.36305 168.244 3.84005 169.856C5.36505 170.045 6.40104 169.604 7.67004 169.257C9.42304 168.778 11.268 168.371 13.141 168.025Z" fill="#233560"/>
<path d="M99.885 39.9114C99.885 39.9114 100.396 46.7366 100.327 47.4026C100.258 48.0696 100.327 49.3496 100.327 49.3496" stroke="#FFC563" stroke-miterlimit="10"/>
<path d="M104.275 31.8254C104.275 31.8254 103.618 34.5066 103.436 40.5066C103.254 46.5066 103.856 52.2515 103.856 52.2515" stroke="#FFC563" stroke-miterlimit="10"/>
<path d="M94.0271 128.392C93.5051 128.909 92.8121 129.233 91.9451 129.363V130.899H90.5201V129.39C89.8951 129.343 89.3211 129.224 88.7951 129.028C88.2681 128.832 87.8101 128.572 87.4181 128.246L88.0191 126.946C88.4941 127.301 88.9761 127.561 89.4651 127.729C89.9541 127.896 90.4831 127.979 91.0511 127.979C91.6851 127.979 92.1711 127.858 92.5111 127.616C92.8511 127.374 93.0211 127.026 93.0211 126.569C93.0211 126.299 92.9281 126.079 92.7421 125.911C92.5561 125.744 92.3241 125.611 92.0501 125.513C91.7761 125.415 91.3871 125.301 90.8831 125.171C90.1751 124.994 89.6021 124.816 89.1651 124.634C88.7271 124.452 88.3501 124.172 88.0331 123.795C87.7161 123.418 87.5581 122.914 87.5581 122.28C87.5581 121.535 87.8311 120.896 88.3761 120.365C88.9201 119.834 89.6261 119.505 90.4921 119.374V117.836H91.9171V119.359C92.4481 119.424 92.9531 119.555 93.4331 119.75C93.9131 119.945 94.3111 120.189 94.6281 120.477L94.0271 121.777C93.1611 121.097 92.2341 120.755 91.2471 120.755C90.6691 120.755 90.2111 120.882 89.8711 121.134C89.5311 121.385 89.3611 121.733 89.3611 122.181C89.3611 122.489 89.4591 122.738 89.6541 122.928C89.8501 123.119 90.0991 123.272 90.4011 123.383C90.7031 123.495 91.1111 123.611 91.6241 123.731C92.3041 123.898 92.8561 124.069 93.2801 124.241C93.7041 124.413 94.0651 124.681 94.3631 125.044C94.6611 125.407 94.8101 125.892 94.8101 126.498C94.8101 127.244 94.5491 127.875 94.0271 128.392Z" fill="#0F2F50"/>
<path d="M4.84693 14.8662C4.84693 14.8662 35.9369 1.04727 50.8239 4.50926C65.7109 7.97126 79.6759 19.7421 82.5599 27.3591C85.4439 34.9751 87.7869 43.6311 83.6729 41.9001C79.5589 40.1691 69.5189 23.8973 62.2479 23.2053C54.9779 22.5133 44.4139 25.2821 45.3679 30.1291C46.3219 34.9761 57.0539 44.3243 56.3619 49.8633C55.6699 55.4023 55.3229 55.4623 43.5519 48.1623C31.7809 40.8623 4.42994 35.3223 4.42994 35.3223C4.42994 35.3223 0.760929 24.1842 4.84693 14.8662Z" fill="white" stroke="#233560" stroke-miterlimit="10" stroke-linecap="round"/>
</svg>
